solid OpenSCAD_Model
  facet normal -1 0 0
    outer loop
      vertex 255 130 175
      vertex 255 210 200
      vertex 255 210 175
    endloop
  endfacet
  facet normal -1 -0 0
    outer loop
      vertex 255 210 200
      vertex 255 130 175
      vertex 255 130 200
    endloop
  endfacet
  facet normal -1 0 0
    outer loop
      vertex 255 25 175
      vertex 255 105 200
      vertex 255 105 175
    endloop
  endfacet
  facet normal -1 -0 0
    outer loop
      vertex 255 105 200
      vertex 255 25 175
      vertex 255 25 200
    endloop
  endfacet
  facet normal -1 0 0
    outer loop
      vertex 255 340 175
      vertex 255 420 200
      vertex 255 420 175
    endloop
  endfacet
  facet normal -1 -0 0
    outer loop
      vertex 255 420 200
      vertex 255 340 175
      vertex 255 340 200
    endloop
  endfacet
  facet normal -1 0 0
    outer loop
      vertex 255 235 175
      vertex 255 315 200
      vertex 255 315 175
    endloop
  endfacet
  facet normal -1 -0 0
    outer loop
      vertex 255 315 200
      vertex 255 235 175
      vertex 255 235 200
    endloop
  endfacet
  facet normal -1 0 0
    outer loop
      vertex 255 445 175
      vertex 255 525 200
      vertex 255 525 175
    endloop
  endfacet
  facet normal -1 -0 0
    outer loop
      vertex 255 525 200
      vertex 255 445 175
      vertex 255 445 200
    endloop
  endfacet
  facet normal -0 0 1
    outer loop
      vertex 0 525 200
      vertex 25 445 200
      vertex 25 525 200
    endloop
  endfacet
  facet normal 0 0 1
    outer loop
      vertex 25 445 200
      vertex 0 525 200
      vertex 25 420 200
    endloop
  endfacet
  facet normal 0 0 1
    outer loop
      vertex 25 420 200
      vertex 0 525 200
      vertex 25 340 200
    endloop
  endfacet
  facet normal 0 0 1
    outer loop
      vertex 25 340 200
      vertex 0 525 200
      vertex 25 315 200
    endloop
  endfacet
  facet normal 0 0 1
    outer loop
      vertex 25 315 200
      vertex 0 525 200
      vertex 25 235 200
    endloop
  endfacet
  facet normal 0 0 1
    outer loop
      vertex 0 25 200
      vertex 25 235 200
      vertex 0 525 200
    endloop
  endfacet
  facet normal 0 0 1
    outer loop
      vertex 25 235 200
      vertex 0 25 200
      vertex 25 210 200
    endloop
  endfacet
  facet normal 0 0 1
    outer loop
      vertex 25 210 200
      vertex 0 25 200
      vertex 25 130 200
    endloop
  endfacet
  facet normal 0 0 1
    outer loop
      vertex 25 130 200
      vertex 0 25 200
      vertex 25 105 200
    endloop
  endfacet
  facet normal 0 0 1
    outer loop
      vertex 25 105 200
      vertex 0 25 200
      vertex 25 25 200
    endloop
  endfacet
  facet normal -0 0 1
    outer loop
      vertex 25 130 200
      vertex 255 105 200
      vertex 255 130 200
    endloop
  endfacet
  facet normal 0 0 1
    outer loop
      vertex 255 105 200
      vertex 25 130 200
      vertex 25 105 200
    endloop
  endfacet
  facet normal -0 0 1
    outer loop
      vertex 25 235 200
      vertex 255 210 200
      vertex 255 235 200
    endloop
  endfacet
  facet normal 0 0 1
    outer loop
      vertex 255 210 200
      vertex 25 235 200
      vertex 25 210 200
    endloop
  endfacet
  facet normal -0 0 1
    outer loop
      vertex 25 340 200
      vertex 255 315 200
      vertex 255 340 200
    endloop
  endfacet
  facet normal 0 0 1
    outer loop
      vertex 255 315 200
      vertex 25 340 200
      vertex 25 315 200
    endloop
  endfacet
  facet normal -0 0 1
    outer loop
      vertex 25 445 200
      vertex 255 420 200
      vertex 255 445 200
    endloop
  endfacet
  facet normal 0 0 1
    outer loop
      vertex 255 420 200
      vertex 25 445 200
      vertex 25 420 200
    endloop
  endfacet
  facet normal 0 0 1
    outer loop
      vertex 255 445 200
      vertex 280 525 200
      vertex 255 525 200
    endloop
  endfacet
  facet normal 0 0 1
    outer loop
      vertex 255 420 200
      vertex 280 525 200
      vertex 255 445 200
    endloop
  endfacet
  facet normal 0 0 1
    outer loop
      vertex 255 340 200
      vertex 280 525 200
      vertex 255 420 200
    endloop
  endfacet
  facet normal 0 0 1
    outer loop
      vertex 255 315 200
      vertex 280 525 200
      vertex 255 340 200
    endloop
  endfacet
  facet normal 0 0 1
    outer loop
      vertex 280 525 200
      vertex 255 315 200
      vertex 280 25 200
    endloop
  endfacet
  facet normal -0 0 1
    outer loop
      vertex 255 235 200
      vertex 280 25 200
      vertex 255 315 200
    endloop
  endfacet
  facet normal -0 0 1
    outer loop
      vertex 255 210 200
      vertex 280 25 200
      vertex 255 235 200
    endloop
  endfacet
  facet normal -0 0 1
    outer loop
      vertex 255 130 200
      vertex 280 25 200
      vertex 255 210 200
    endloop
  endfacet
  facet normal -0 0 1
    outer loop
      vertex 255 105 200
      vertex 280 25 200
      vertex 255 130 200
    endloop
  endfacet
  facet normal 0 0 1
    outer loop
      vertex 280 25 200
      vertex 255 105 200
      vertex 255 25 200
    endloop
  endfacet
  facet normal -0 0 1
    outer loop
      vertex 25 550 200
      vertex 255 525 200
      vertex 255 550 200
    endloop
  endfacet
  facet normal 0 0 1
    outer loop
      vertex 255 525 200
      vertex 25 550 200
      vertex 25 525 200
    endloop
  endfacet
  facet normal -0 0 1
    outer loop
      vertex 25 25 200
      vertex 255 0 200
      vertex 255 25 200
    endloop
  endfacet
  facet normal 0 0 1
    outer loop
      vertex 255 0 200
      vertex 25 25 200
      vertex 25 0 200
    endloop
  endfacet
  facet normal 0 0 -1
    outer loop
      vertex 0 25 175
      vertex 25 105 175
      vertex 25 25 175
    endloop
  endfacet
  facet normal -0 0 -1
    outer loop
      vertex 25 105 175
      vertex 0 25 175
      vertex 25 130 175
    endloop
  endfacet
  facet normal -0 0 -1
    outer loop
      vertex 25 130 175
      vertex 0 25 175
      vertex 25 210 175
    endloop
  endfacet
  facet normal -0 0 -1
    outer loop
      vertex 25 210 175
      vertex 0 25 175
      vertex 25 235 175
    endloop
  endfacet
  facet normal -0 0 -1
    outer loop
      vertex 25 235 175
      vertex 0 25 175
      vertex 25 315 175
    endloop
  endfacet
  facet normal 0 0 -1
    outer loop
      vertex 0 525 175
      vertex 25 315 175
      vertex 0 25 175
    endloop
  endfacet
  facet normal 0 0 -1
    outer loop
      vertex 25 315 175
      vertex 0 525 175
      vertex 25 340 175
    endloop
  endfacet
  facet normal 0 0 -1
    outer loop
      vertex 25 340 175
      vertex 0 525 175
      vertex 25 420 175
    endloop
  endfacet
  facet normal 0 0 -1
    outer loop
      vertex 25 420 175
      vertex 0 525 175
      vertex 25 445 175
    endloop
  endfacet
  facet normal 0 0 -1
    outer loop
      vertex 25 445 175
      vertex 0 525 175
      vertex 25 525 175
    endloop
  endfacet
  facet normal 0 0 -1
    outer loop
      vertex 25 420 175
      vertex 255 445 175
      vertex 255 420 175
    endloop
  endfacet
  facet normal -0 0 -1
    outer loop
      vertex 255 445 175
      vertex 25 420 175
      vertex 25 445 175
    endloop
  endfacet
  facet normal 0 0 -1
    outer loop
      vertex 25 315 175
      vertex 255 340 175
      vertex 255 315 175
    endloop
  endfacet
  facet normal -0 0 -1
    outer loop
      vertex 255 340 175
      vertex 25 315 175
      vertex 25 340 175
    endloop
  endfacet
  facet normal 0 0 -1
    outer loop
      vertex 25 210 175
      vertex 255 235 175
      vertex 255 210 175
    endloop
  endfacet
  facet normal -0 0 -1
    outer loop
      vertex 255 235 175
      vertex 25 210 175
      vertex 25 235 175
    endloop
  endfacet
  facet normal 0 0 -1
    outer loop
      vertex 25 105 175
      vertex 255 130 175
      vertex 255 105 175
    endloop
  endfacet
  facet normal -0 0 -1
    outer loop
      vertex 255 130 175
      vertex 25 105 175
      vertex 25 130 175
    endloop
  endfacet
  facet normal 0 0 -1
    outer loop
      vertex 255 105 175
      vertex 280 25 175
      vertex 255 25 175
    endloop
  endfacet
  facet normal 0 0 -1
    outer loop
      vertex 255 130 175
      vertex 280 25 175
      vertex 255 105 175
    endloop
  endfacet
  facet normal 0 0 -1
    outer loop
      vertex 255 210 175
      vertex 280 25 175
      vertex 255 130 175
    endloop
  endfacet
  facet normal 0 0 -1
    outer loop
      vertex 255 235 175
      vertex 280 25 175
      vertex 255 210 175
    endloop
  endfacet
  facet normal 0 0 -1
    outer loop
      vertex 280 25 175
      vertex 255 235 175
      vertex 280 525 175
    endloop
  endfacet
  facet normal 0 0 -1
    outer loop
      vertex 255 315 175
      vertex 280 525 175
      vertex 255 235 175
    endloop
  endfacet
  facet normal 0 0 -1
    outer loop
      vertex 255 340 175
      vertex 280 525 175
      vertex 255 315 175
    endloop
  endfacet
  facet normal 0 0 -1
    outer loop
      vertex 255 420 175
      vertex 280 525 175
      vertex 255 340 175
    endloop
  endfacet
  facet normal 0 0 -1
    outer loop
      vertex 255 445 175
      vertex 280 525 175
      vertex 255 420 175
    endloop
  endfacet
  facet normal -0 0 -1
    outer loop
      vertex 280 525 175
      vertex 255 445 175
      vertex 255 525 175
    endloop
  endfacet
  facet normal 0 0 -1
    outer loop
      vertex 25 525 175
      vertex 255 550 175
      vertex 255 525 175
    endloop
  endfacet
  facet normal -0 0 -1
    outer loop
      vertex 255 550 175
      vertex 25 525 175
      vertex 25 550 175
    endloop
  endfacet
  facet normal 0 0 -1
    outer loop
      vertex 25 0 175
      vertex 255 25 175
      vertex 255 0 175
    endloop
  endfacet
  facet normal -0 0 -1
    outer loop
      vertex 255 25 175
      vertex 25 0 175
      vertex 25 25 175
    endloop
  endfacet
  facet normal 1 -0 0
    outer loop
      vertex 25 130 200
      vertex 25 210 175
      vertex 25 210 200
    endloop
  endfacet
  facet normal 1 0 0
    outer loop
      vertex 25 210 175
      vertex 25 130 200
      vertex 25 130 175
    endloop
  endfacet
  facet normal 1 -0 0
    outer loop
      vertex 25 25 200
      vertex 25 105 175
      vertex 25 105 200
    endloop
  endfacet
  facet normal 1 0 0
    outer loop
      vertex 25 105 175
      vertex 25 25 200
      vertex 25 25 175
    endloop
  endfacet
  facet normal 1 -0 0
    outer loop
      vertex 25 340 200
      vertex 25 420 175
      vertex 25 420 200
    endloop
  endfacet
  facet normal 1 0 0
    outer loop
      vertex 25 420 175
      vertex 25 340 200
      vertex 25 340 175
    endloop
  endfacet
  facet normal 1 -0 0
    outer loop
      vertex 25 235 200
      vertex 25 315 175
      vertex 25 315 200
    endloop
  endfacet
  facet normal 1 0 0
    outer loop
      vertex 25 315 175
      vertex 25 235 200
      vertex 25 235 175
    endloop
  endfacet
  facet normal 1 -0 0
    outer loop
      vertex 25 445 200
      vertex 25 525 175
      vertex 25 525 200
    endloop
  endfacet
  facet normal 1 0 0
    outer loop
      vertex 25 525 175
      vertex 25 445 200
      vertex 25 445 175
    endloop
  endfacet
  facet normal 0 1 -0
    outer loop
      vertex 255 25 175
      vertex 25 25 200
      vertex 255 25 200
    endloop
  endfacet
  facet normal 0 1 0
    outer loop
      vertex 25 25 200
      vertex 255 25 175
      vertex 25 25 175
    endloop
  endfacet
  facet normal 0 -1 0
    outer loop
      vertex 0 0 875
      vertex 25 0 850
      vertex 280 0 875
    endloop
  endfacet
  facet normal 0 -1 0
    outer loop
      vertex 0 0 875
      vertex 25 0 500
      vertex 25 0 850
    endloop
  endfacet
  facet normal 0 -1 0
    outer loop
      vertex 25 0 500
      vertex 25 0 475
      vertex 255 0 500
    endloop
  endfacet
  facet normal 0 -1 0
    outer loop
      vertex 0 0 875
      vertex 25 0 475
      vertex 25 0 500
    endloop
  endfacet
  facet normal 0 -1 0
    outer loop
      vertex 0 0 0
      vertex 25 0 475
      vertex 0 0 875
    endloop
  endfacet
  facet normal 0 -1 0
    outer loop
      vertex 25 0 200
      vertex 25 0 175
      vertex 255 0 200
    endloop
  endfacet
  facet normal 0 -1 -0
    outer loop
      vertex 25 0 475
      vertex 0 0 0
      vertex 25 0 200
    endloop
  endfacet
  facet normal 0 -1 -0
    outer loop
      vertex 25 0 200
      vertex 0 0 0
      vertex 25 0 175
    endloop
  endfacet
  facet normal 0 -1 -0
    outer loop
      vertex 25 0 175
      vertex 0 0 0
      vertex 25 0 0
    endloop
  endfacet
  facet normal 0 -1 0
    outer loop
      vertex 255 0 850
      vertex 280 0 875
      vertex 25 0 850
    endloop
  endfacet
  facet normal 0 -1 0
    outer loop
      vertex 255 0 500
      vertex 280 0 875
      vertex 255 0 850
    endloop
  endfacet
  facet normal 0 -1 0
    outer loop
      vertex 255 0 475
      vertex 255 0 500
      vertex 25 0 475
    endloop
  endfacet
  facet normal 0 -1 0
    outer loop
      vertex 255 0 475
      vertex 280 0 875
      vertex 255 0 500
    endloop
  endfacet
  facet normal 0 -1 0
    outer loop
      vertex 280 0 0
      vertex 255 0 475
      vertex 255 0 200
    endloop
  endfacet
  facet normal 0 -1 0
    outer loop
      vertex 255 0 175
      vertex 255 0 200
      vertex 25 0 175
    endloop
  endfacet
  facet normal 0 -1 0
    outer loop
      vertex 280 0 0
      vertex 255 0 200
      vertex 255 0 175
    endloop
  endfacet
  facet normal 0 -1 0
    outer loop
      vertex 280 0 0
      vertex 255 0 175
      vertex 255 0 0
    endloop
  endfacet
  facet normal 0 -1 0
    outer loop
      vertex 255 0 475
      vertex 280 0 0
      vertex 280 0 875
    endloop
  endfacet
  facet normal 0 1 -0
    outer loop
      vertex 255 130 175
      vertex 25 130 200
      vertex 255 130 200
    endloop
  endfacet
  facet normal 0 1 0
    outer loop
      vertex 25 130 200
      vertex 255 130 175
      vertex 25 130 175
    endloop
  endfacet
  facet normal 0 -1 0
    outer loop
      vertex 25 105 175
      vertex 255 105 200
      vertex 25 105 200
    endloop
  endfacet
  facet normal 0 -1 -0
    outer loop
      vertex 255 105 200
      vertex 25 105 175
      vertex 255 105 175
    endloop
  endfacet
  facet normal 0 1 -0
    outer loop
      vertex 255 235 175
      vertex 25 235 200
      vertex 255 235 200
    endloop
  endfacet
  facet normal 0 1 0
    outer loop
      vertex 25 235 200
      vertex 255 235 175
      vertex 25 235 175
    endloop
  endfacet
  facet normal 0 -1 0
    outer loop
      vertex 25 210 175
      vertex 255 210 200
      vertex 25 210 200
    endloop
  endfacet
  facet normal 0 -1 -0
    outer loop
      vertex 255 210 200
      vertex 25 210 175
      vertex 255 210 175
    endloop
  endfacet
  facet normal 0 1 -0
    outer loop
      vertex 255 340 175
      vertex 25 340 200
      vertex 255 340 200
    endloop
  endfacet
  facet normal 0 1 0
    outer loop
      vertex 25 340 200
      vertex 255 340 175
      vertex 25 340 175
    endloop
  endfacet
  facet normal 0 -1 0
    outer loop
      vertex 25 315 175
      vertex 255 315 200
      vertex 25 315 200
    endloop
  endfacet
  facet normal 0 -1 -0
    outer loop
      vertex 255 315 200
      vertex 25 315 175
      vertex 255 315 175
    endloop
  endfacet
  facet normal 0 1 -0
    outer loop
      vertex 255 445 175
      vertex 25 445 200
      vertex 255 445 200
    endloop
  endfacet
  facet normal 0 1 0
    outer loop
      vertex 25 445 200
      vertex 255 445 175
      vertex 25 445 175
    endloop
  endfacet
  facet normal 0 -1 0
    outer loop
      vertex 25 420 175
      vertex 255 420 200
      vertex 25 420 200
    endloop
  endfacet
  facet normal 0 -1 -0
    outer loop
      vertex 255 420 200
      vertex 25 420 175
      vertex 255 420 175
    endloop
  endfacet
  facet normal 0 1 0
    outer loop
      vertex 280 550 875
      vertex 255 550 850
      vertex 0 550 875
    endloop
  endfacet
  facet normal 0 1 0
    outer loop
      vertex 280 550 875
      vertex 255 550 500
      vertex 255 550 850
    endloop
  endfacet
  facet normal 0 1 0
    outer loop
      vertex 255 550 500
      vertex 255 550 475
      vertex 25 550 500
    endloop
  endfacet
  facet normal 0 1 0
    outer loop
      vertex 280 550 875
      vertex 255 550 475
      vertex 255 550 500
    endloop
  endfacet
  facet normal 0 1 -0
    outer loop
      vertex 280 550 0
      vertex 255 550 475
      vertex 280 550 875
    endloop
  endfacet
  facet normal 0 1 0
    outer loop
      vertex 255 550 200
      vertex 255 550 175
      vertex 25 550 200
    endloop
  endfacet
  facet normal 0 1 0
    outer loop
      vertex 255 550 475
      vertex 280 550 0
      vertex 255 550 200
    endloop
  endfacet
  facet normal 0 1 0
    outer loop
      vertex 255 550 200
      vertex 280 550 0
      vertex 255 550 175
    endloop
  endfacet
  facet normal 0 1 0
    outer loop
      vertex 255 550 175
      vertex 280 550 0
      vertex 255 550 0
    endloop
  endfacet
  facet normal 0 1 -0
    outer loop
      vertex 25 550 850
      vertex 0 550 875
      vertex 255 550 850
    endloop
  endfacet
  facet normal 0 1 -0
    outer loop
      vertex 25 550 500
      vertex 0 550 875
      vertex 25 550 850
    endloop
  endfacet
  facet normal 0 1 0
    outer loop
      vertex 25 550 475
      vertex 25 550 500
      vertex 255 550 475
    endloop
  endfacet
  facet normal 0 1 -0
    outer loop
      vertex 25 550 475
      vertex 0 550 875
      vertex 25 550 500
    endloop
  endfacet
  facet normal 0 1 0
    outer loop
      vertex 0 550 0
      vertex 25 550 475
      vertex 25 550 200
    endloop
  endfacet
  facet normal 0 1 0
    outer loop
      vertex 25 550 175
      vertex 25 550 200
      vertex 255 550 175
    endloop
  endfacet
  facet normal 0 1 0
    outer loop
      vertex 0 550 0
      vertex 25 550 200
      vertex 25 550 175
    endloop
  endfacet
  facet normal 0 1 0
    outer loop
      vertex 0 550 0
      vertex 25 550 175
      vertex 25 550 0
    endloop
  endfacet
  facet normal 0 1 0
    outer loop
      vertex 25 550 475
      vertex 0 550 0
      vertex 0 550 875
    endloop
  endfacet
  facet normal 0 -1 0
    outer loop
      vertex 25 525 175
      vertex 255 525 200
      vertex 25 525 200
    endloop
  endfacet
  facet normal 0 -1 -0
    outer loop
      vertex 255 525 200
      vertex 25 525 175
      vertex 255 525 175
    endloop
  endfacet
  facet normal -1 0 0
    outer loop
      vertex 0 0 0
      vertex 0 25 175
      vertex 0 25 0
    endloop
  endfacet
  facet normal -1 -0 0
    outer loop
      vertex 0 25 175
      vertex 0 0 0
      vertex 0 25 200
    endloop
  endfacet
  facet normal -1 -0 0
    outer loop
      vertex 0 25 200
      vertex 0 0 0
      vertex 0 25 475
    endloop
  endfacet
  facet normal -1 0 0
    outer loop
      vertex 0 0 875
      vertex 0 25 475
      vertex 0 0 0
    endloop
  endfacet
  facet normal -1 0 0
    outer loop
      vertex 0 25 475
      vertex 0 0 875
      vertex 0 25 500
    endloop
  endfacet
  facet normal -1 0 0
    outer loop
      vertex 0 25 475
      vertex 0 525 500
      vertex 0 525 475
    endloop
  endfacet
  facet normal -1 -0 0
    outer loop
      vertex 0 525 500
      vertex 0 25 475
      vertex 0 25 500
    endloop
  endfacet
  facet normal -1 0 0
    outer loop
      vertex 0 25 175
      vertex 0 525 200
      vertex 0 525 175
    endloop
  endfacet
  facet normal -1 -0 0
    outer loop
      vertex 0 525 200
      vertex 0 25 175
      vertex 0 25 200
    endloop
  endfacet
  facet normal -1 0 0
    outer loop
      vertex 0 525 175
      vertex 0 550 0
      vertex 0 525 0
    endloop
  endfacet
  facet normal -1 0 0
    outer loop
      vertex 0 525 200
      vertex 0 550 0
      vertex 0 525 175
    endloop
  endfacet
  facet normal -1 0 0
    outer loop
      vertex 0 525 475
      vertex 0 550 0
      vertex 0 525 200
    endloop
  endfacet
  facet normal -1 0 0
    outer loop
      vertex 0 550 0
      vertex 0 525 475
      vertex 0 550 875
    endloop
  endfacet
  facet normal -1 0 0
    outer loop
      vertex 0 525 500
      vertex 0 550 875
      vertex 0 525 475
    endloop
  endfacet
  facet normal -1 0 0
    outer loop
      vertex 0 525 850
      vertex 0 550 875
      vertex 0 525 500
    endloop
  endfacet
  facet normal -1 0 0
    outer loop
      vertex 0 25 850
      vertex 0 550 875
      vertex 0 525 850
    endloop
  endfacet
  facet normal -1 0 0
    outer loop
      vertex 0 25 850
      vertex 0 0 875
      vertex 0 550 875
    endloop
  endfacet
  facet normal -1 0 0
    outer loop
      vertex 0 25 500
      vertex 0 0 875
      vertex 0 25 850
    endloop
  endfacet
  facet normal 1 -0 0
    outer loop
      vertex 280 25 200
      vertex 280 525 175
      vertex 280 525 200
    endloop
  endfacet
  facet normal 1 0 0
    outer loop
      vertex 280 525 175
      vertex 280 25 200
      vertex 280 25 175
    endloop
  endfacet
  facet normal 1 -0 0
    outer loop
      vertex 280 25 500
      vertex 280 525 475
      vertex 280 525 500
    endloop
  endfacet
  facet normal 1 0 0
    outer loop
      vertex 280 525 475
      vertex 280 25 500
      vertex 280 25 475
    endloop
  endfacet
  facet normal 1 0 0
    outer loop
      vertex 280 525 500
      vertex 280 550 875
      vertex 280 525 850
    endloop
  endfacet
  facet normal 1 0 0
    outer loop
      vertex 280 550 875
      vertex 280 25 850
      vertex 280 525 850
    endloop
  endfacet
  facet normal 1 0 0
    outer loop
      vertex 280 0 875
      vertex 280 25 500
      vertex 280 25 850
    endloop
  endfacet
  facet normal 1 0 0
    outer loop
      vertex 280 25 500
      vertex 280 0 875
      vertex 280 25 475
    endloop
  endfacet
  facet normal 1 0 0
    outer loop
      vertex 280 0 0
      vertex 280 25 475
      vertex 280 0 875
    endloop
  endfacet
  facet normal 1 0 0
    outer loop
      vertex 280 25 475
      vertex 280 0 0
      vertex 280 25 200
    endloop
  endfacet
  facet normal 1 -0 0
    outer loop
      vertex 280 0 875
      vertex 280 25 850
      vertex 280 550 875
    endloop
  endfacet
  facet normal 1 0 0
    outer loop
      vertex 280 25 200
      vertex 280 0 0
      vertex 280 25 175
    endloop
  endfacet
  facet normal 1 0 0
    outer loop
      vertex 280 25 175
      vertex 280 0 0
      vertex 280 25 0
    endloop
  endfacet
  facet normal 1 0 0
    outer loop
      vertex 280 525 475
      vertex 280 550 875
      vertex 280 525 500
    endloop
  endfacet
  facet normal 1 0 0
    outer loop
      vertex 280 550 875
      vertex 280 525 475
      vertex 280 550 0
    endloop
  endfacet
  facet normal 1 -0 0
    outer loop
      vertex 280 525 200
      vertex 280 550 0
      vertex 280 525 475
    endloop
  endfacet
  facet normal 1 -0 0
    outer loop
      vertex 280 525 175
      vertex 280 550 0
      vertex 280 525 200
    endloop
  endfacet
  facet normal 1 0 0
    outer loop
      vertex 280 550 0
      vertex 280 525 175
      vertex 280 525 0
    endloop
  endfacet
  facet normal -1 0 0
    outer loop
      vertex 255 130 475
      vertex 255 210 500
      vertex 255 210 475
    endloop
  endfacet
  facet normal -1 -0 0
    outer loop
      vertex 255 210 500
      vertex 255 130 475
      vertex 255 130 500
    endloop
  endfacet
  facet normal -1 0 0
    outer loop
      vertex 255 25 475
      vertex 255 105 500
      vertex 255 105 475
    endloop
  endfacet
  facet normal -1 -0 0
    outer loop
      vertex 255 105 500
      vertex 255 25 475
      vertex 255 25 500
    endloop
  endfacet
  facet normal -1 0 0
    outer loop
      vertex 255 340 475
      vertex 255 420 500
      vertex 255 420 475
    endloop
  endfacet
  facet normal -1 -0 0
    outer loop
      vertex 255 420 500
      vertex 255 340 475
      vertex 255 340 500
    endloop
  endfacet
  facet normal -1 0 0
    outer loop
      vertex 255 235 475
      vertex 255 315 500
      vertex 255 315 475
    endloop
  endfacet
  facet normal -1 -0 0
    outer loop
      vertex 255 315 500
      vertex 255 235 475
      vertex 255 235 500
    endloop
  endfacet
  facet normal -1 0 0
    outer loop
      vertex 255 445 475
      vertex 255 525 500
      vertex 255 525 475
    endloop
  endfacet
  facet normal -1 -0 0
    outer loop
      vertex 255 525 500
      vertex 255 445 475
      vertex 255 445 500
    endloop
  endfacet
  facet normal -0 0 1
    outer loop
      vertex 0 525 500
      vertex 25 445 500
      vertex 25 525 500
    endloop
  endfacet
  facet normal 0 0 1
    outer loop
      vertex 25 445 500
      vertex 0 525 500
      vertex 25 420 500
    endloop
  endfacet
  facet normal 0 0 1
    outer loop
      vertex 25 420 500
      vertex 0 525 500
      vertex 25 340 500
    endloop
  endfacet
  facet normal 0 0 1
    outer loop
      vertex 25 340 500
      vertex 0 525 500
      vertex 25 315 500
    endloop
  endfacet
  facet normal 0 0 1
    outer loop
      vertex 25 315 500
      vertex 0 525 500
      vertex 25 235 500
    endloop
  endfacet
  facet normal 0 0 1
    outer loop
      vertex 0 25 500
      vertex 25 235 500
      vertex 0 525 500
    endloop
  endfacet
  facet normal 0 0 1
    outer loop
      vertex 25 235 500
      vertex 0 25 500
      vertex 25 210 500
    endloop
  endfacet
  facet normal 0 0 1
    outer loop
      vertex 25 210 500
      vertex 0 25 500
      vertex 25 130 500
    endloop
  endfacet
  facet normal 0 0 1
    outer loop
      vertex 25 130 500
      vertex 0 25 500
      vertex 25 105 500
    endloop
  endfacet
  facet normal 0 0 1
    outer loop
      vertex 25 105 500
      vertex 0 25 500
      vertex 25 25 500
    endloop
  endfacet
  facet normal -0 0 1
    outer loop
      vertex 25 130 500
      vertex 255 105 500
      vertex 255 130 500
    endloop
  endfacet
  facet normal 0 0 1
    outer loop
      vertex 255 105 500
      vertex 25 130 500
      vertex 25 105 500
    endloop
  endfacet
  facet normal -0 0 1
    outer loop
      vertex 25 235 500
      vertex 255 210 500
      vertex 255 235 500
    endloop
  endfacet
  facet normal 0 0 1
    outer loop
      vertex 255 210 500
      vertex 25 235 500
      vertex 25 210 500
    endloop
  endfacet
  facet normal -0 0 1
    outer loop
      vertex 25 340 500
      vertex 255 315 500
      vertex 255 340 500
    endloop
  endfacet
  facet normal 0 0 1
    outer loop
      vertex 255 315 500
      vertex 25 340 500
      vertex 25 315 500
    endloop
  endfacet
  facet normal -0 0 1
    outer loop
      vertex 25 445 500
      vertex 255 420 500
      vertex 255 445 500
    endloop
  endfacet
  facet normal 0 0 1
    outer loop
      vertex 255 420 500
      vertex 25 445 500
      vertex 25 420 500
    endloop
  endfacet
  facet normal 0 0 1
    outer loop
      vertex 255 445 500
      vertex 280 525 500
      vertex 255 525 500
    endloop
  endfacet
  facet normal 0 0 1
    outer loop
      vertex 255 420 500
      vertex 280 525 500
      vertex 255 445 500
    endloop
  endfacet
  facet normal 0 0 1
    outer loop
      vertex 255 340 500
      vertex 280 525 500
      vertex 255 420 500
    endloop
  endfacet
  facet normal 0 0 1
    outer loop
      vertex 255 315 500
      vertex 280 525 500
      vertex 255 340 500
    endloop
  endfacet
  facet normal 0 0 1
    outer loop
      vertex 280 525 500
      vertex 255 315 500
      vertex 280 25 500
    endloop
  endfacet
  facet normal -0 0 1
    outer loop
      vertex 255 235 500
      vertex 280 25 500
      vertex 255 315 500
    endloop
  endfacet
  facet normal -0 0 1
    outer loop
      vertex 255 210 500
      vertex 280 25 500
      vertex 255 235 500
    endloop
  endfacet
  facet normal -0 0 1
    outer loop
      vertex 255 130 500
      vertex 280 25 500
      vertex 255 210 500
    endloop
  endfacet
  facet normal -0 0 1
    outer loop
      vertex 255 105 500
      vertex 280 25 500
      vertex 255 130 500
    endloop
  endfacet
  facet normal 0 0 1
    outer loop
      vertex 280 25 500
      vertex 255 105 500
      vertex 255 25 500
    endloop
  endfacet
  facet normal -0 0 1
    outer loop
      vertex 25 550 500
      vertex 255 525 500
      vertex 255 550 500
    endloop
  endfacet
  facet normal 0 0 1
    outer loop
      vertex 255 525 500
      vertex 25 550 500
      vertex 25 525 500
    endloop
  endfacet
  facet normal -0 0 1
    outer loop
      vertex 25 25 500
      vertex 255 0 500
      vertex 255 25 500
    endloop
  endfacet
  facet normal 0 0 1
    outer loop
      vertex 255 0 500
      vertex 25 25 500
      vertex 25 0 500
    endloop
  endfacet
  facet normal 0 0 -1
    outer loop
      vertex 0 25 475
      vertex 25 105 475
      vertex 25 25 475
    endloop
  endfacet
  facet normal -0 0 -1
    outer loop
      vertex 25 105 475
      vertex 0 25 475
      vertex 25 130 475
    endloop
  endfacet
  facet normal -0 0 -1
    outer loop
      vertex 25 130 475
      vertex 0 25 475
      vertex 25 210 475
    endloop
  endfacet
  facet normal -0 0 -1
    outer loop
      vertex 25 210 475
      vertex 0 25 475
      vertex 25 235 475
    endloop
  endfacet
  facet normal -0 0 -1
    outer loop
      vertex 25 235 475
      vertex 0 25 475
      vertex 25 315 475
    endloop
  endfacet
  facet normal 0 0 -1
    outer loop
      vertex 0 525 475
      vertex 25 315 475
      vertex 0 25 475
    endloop
  endfacet
  facet normal 0 0 -1
    outer loop
      vertex 25 315 475
      vertex 0 525 475
      vertex 25 340 475
    endloop
  endfacet
  facet normal 0 0 -1
    outer loop
      vertex 25 340 475
      vertex 0 525 475
      vertex 25 420 475
    endloop
  endfacet
  facet normal 0 0 -1
    outer loop
      vertex 25 420 475
      vertex 0 525 475
      vertex 25 445 475
    endloop
  endfacet
  facet normal 0 0 -1
    outer loop
      vertex 25 445 475
      vertex 0 525 475
      vertex 25 525 475
    endloop
  endfacet
  facet normal 0 0 -1
    outer loop
      vertex 25 420 475
      vertex 255 445 475
      vertex 255 420 475
    endloop
  endfacet
  facet normal -0 0 -1
    outer loop
      vertex 255 445 475
      vertex 25 420 475
      vertex 25 445 475
    endloop
  endfacet
  facet normal 0 0 -1
    outer loop
      vertex 25 315 475
      vertex 255 340 475
      vertex 255 315 475
    endloop
  endfacet
  facet normal -0 0 -1
    outer loop
      vertex 255 340 475
      vertex 25 315 475
      vertex 25 340 475
    endloop
  endfacet
  facet normal 0 0 -1
    outer loop
      vertex 25 210 475
      vertex 255 235 475
      vertex 255 210 475
    endloop
  endfacet
  facet normal -0 0 -1
    outer loop
      vertex 255 235 475
      vertex 25 210 475
      vertex 25 235 475
    endloop
  endfacet
  facet normal 0 0 -1
    outer loop
      vertex 25 105 475
      vertex 255 130 475
      vertex 255 105 475
    endloop
  endfacet
  facet normal -0 0 -1
    outer loop
      vertex 255 130 475
      vertex 25 105 475
      vertex 25 130 475
    endloop
  endfacet
  facet normal 0 0 -1
    outer loop
      vertex 255 105 475
      vertex 280 25 475
      vertex 255 25 475
    endloop
  endfacet
  facet normal 0 0 -1
    outer loop
      vertex 255 130 475
      vertex 280 25 475
      vertex 255 105 475
    endloop
  endfacet
  facet normal 0 0 -1
    outer loop
      vertex 255 210 475
      vertex 280 25 475
      vertex 255 130 475
    endloop
  endfacet
  facet normal 0 0 -1
    outer loop
      vertex 255 235 475
      vertex 280 25 475
      vertex 255 210 475
    endloop
  endfacet
  facet normal 0 0 -1
    outer loop
      vertex 280 25 475
      vertex 255 235 475
      vertex 280 525 475
    endloop
  endfacet
  facet normal 0 0 -1
    outer loop
      vertex 255 315 475
      vertex 280 525 475
      vertex 255 235 475
    endloop
  endfacet
  facet normal 0 0 -1
    outer loop
      vertex 255 340 475
      vertex 280 525 475
      vertex 255 315 475
    endloop
  endfacet
  facet normal 0 0 -1
    outer loop
      vertex 255 420 475
      vertex 280 525 475
      vertex 255 340 475
    endloop
  endfacet
  facet normal 0 0 -1
    outer loop
      vertex 255 445 475
      vertex 280 525 475
      vertex 255 420 475
    endloop
  endfacet
  facet normal -0 0 -1
    outer loop
      vertex 280 525 475
      vertex 255 445 475
      vertex 255 525 475
    endloop
  endfacet
  facet normal 0 0 -1
    outer loop
      vertex 25 525 475
      vertex 255 550 475
      vertex 255 525 475
    endloop
  endfacet
  facet normal -0 0 -1
    outer loop
      vertex 255 550 475
      vertex 25 525 475
      vertex 25 550 475
    endloop
  endfacet
  facet normal 0 0 -1
    outer loop
      vertex 25 0 475
      vertex 255 25 475
      vertex 255 0 475
    endloop
  endfacet
  facet normal -0 0 -1
    outer loop
      vertex 255 25 475
      vertex 25 0 475
      vertex 25 25 475
    endloop
  endfacet
  facet normal 1 -0 0
    outer loop
      vertex 25 130 500
      vertex 25 210 475
      vertex 25 210 500
    endloop
  endfacet
  facet normal 1 0 0
    outer loop
      vertex 25 210 475
      vertex 25 130 500
      vertex 25 130 475
    endloop
  endfacet
  facet normal 1 -0 0
    outer loop
      vertex 25 25 500
      vertex 25 105 475
      vertex 25 105 500
    endloop
  endfacet
  facet normal 1 0 0
    outer loop
      vertex 25 105 475
      vertex 25 25 500
      vertex 25 25 475
    endloop
  endfacet
  facet normal 1 -0 0
    outer loop
      vertex 25 340 500
      vertex 25 420 475
      vertex 25 420 500
    endloop
  endfacet
  facet normal 1 0 0
    outer loop
      vertex 25 420 475
      vertex 25 340 500
      vertex 25 340 475
    endloop
  endfacet
  facet normal 1 -0 0
    outer loop
      vertex 25 235 500
      vertex 25 315 475
      vertex 25 315 500
    endloop
  endfacet
  facet normal 1 0 0
    outer loop
      vertex 25 315 475
      vertex 25 235 500
      vertex 25 235 475
    endloop
  endfacet
  facet normal 1 -0 0
    outer loop
      vertex 25 445 500
      vertex 25 525 475
      vertex 25 525 500
    endloop
  endfacet
  facet normal 1 0 0
    outer loop
      vertex 25 525 475
      vertex 25 445 500
      vertex 25 445 475
    endloop
  endfacet
  facet normal 0 1 -0
    outer loop
      vertex 255 25 475
      vertex 25 25 500
      vertex 255 25 500
    endloop
  endfacet
  facet normal 0 1 0
    outer loop
      vertex 25 25 500
      vertex 255 25 475
      vertex 25 25 475
    endloop
  endfacet
  facet normal 0 1 -0
    outer loop
      vertex 255 130 475
      vertex 25 130 500
      vertex 255 130 500
    endloop
  endfacet
  facet normal 0 1 0
    outer loop
      vertex 25 130 500
      vertex 255 130 475
      vertex 25 130 475
    endloop
  endfacet
  facet normal 0 -1 0
    outer loop
      vertex 25 105 475
      vertex 255 105 500
      vertex 25 105 500
    endloop
  endfacet
  facet normal 0 -1 -0
    outer loop
      vertex 255 105 500
      vertex 25 105 475
      vertex 255 105 475
    endloop
  endfacet
  facet normal 0 1 -0
    outer loop
      vertex 255 235 475
      vertex 25 235 500
      vertex 255 235 500
    endloop
  endfacet
  facet normal 0 1 0
    outer loop
      vertex 25 235 500
      vertex 255 235 475
      vertex 25 235 475
    endloop
  endfacet
  facet normal 0 -1 0
    outer loop
      vertex 25 210 475
      vertex 255 210 500
      vertex 25 210 500
    endloop
  endfacet
  facet normal 0 -1 -0
    outer loop
      vertex 255 210 500
      vertex 25 210 475
      vertex 255 210 475
    endloop
  endfacet
  facet normal 0 1 -0
    outer loop
      vertex 255 340 475
      vertex 25 340 500
      vertex 255 340 500
    endloop
  endfacet
  facet normal 0 1 0
    outer loop
      vertex 25 340 500
      vertex 255 340 475
      vertex 25 340 475
    endloop
  endfacet
  facet normal 0 -1 0
    outer loop
      vertex 25 315 475
      vertex 255 315 500
      vertex 25 315 500
    endloop
  endfacet
  facet normal 0 -1 -0
    outer loop
      vertex 255 315 500
      vertex 25 315 475
      vertex 255 315 475
    endloop
  endfacet
  facet normal 0 1 -0
    outer loop
      vertex 255 445 475
      vertex 25 445 500
      vertex 255 445 500
    endloop
  endfacet
  facet normal 0 1 0
    outer loop
      vertex 25 445 500
      vertex 255 445 475
      vertex 25 445 475
    endloop
  endfacet
  facet normal 0 -1 0
    outer loop
      vertex 25 420 475
      vertex 255 420 500
      vertex 25 420 500
    endloop
  endfacet
  facet normal 0 -1 -0
    outer loop
      vertex 255 420 500
      vertex 25 420 475
      vertex 255 420 475
    endloop
  endfacet
  facet normal 0 -1 0
    outer loop
      vertex 25 525 475
      vertex 255 525 500
      vertex 25 525 500
    endloop
  endfacet
  facet normal 0 -1 -0
    outer loop
      vertex 255 525 500
      vertex 25 525 475
      vertex 255 525 475
    endloop
  endfacet
  facet normal -1 0 0
    outer loop
      vertex 255 130 850
      vertex 255 210 875
      vertex 255 210 850
    endloop
  endfacet
  facet normal -1 -0 0
    outer loop
      vertex 255 210 875
      vertex 255 130 850
      vertex 255 130 875
    endloop
  endfacet
  facet normal -1 0 0
    outer loop
      vertex 255 25 850
      vertex 255 105 875
      vertex 255 105 850
    endloop
  endfacet
  facet normal -1 -0 0
    outer loop
      vertex 255 105 875
      vertex 255 25 850
      vertex 255 25 875
    endloop
  endfacet
  facet normal -1 0 0
    outer loop
      vertex 255 340 850
      vertex 255 420 875
      vertex 255 420 850
    endloop
  endfacet
  facet normal -1 -0 0
    outer loop
      vertex 255 420 875
      vertex 255 340 850
      vertex 255 340 875
    endloop
  endfacet
  facet normal -1 0 0
    outer loop
      vertex 255 235 850
      vertex 255 315 875
      vertex 255 315 850
    endloop
  endfacet
  facet normal -1 -0 0
    outer loop
      vertex 255 315 875
      vertex 255 235 850
      vertex 255 235 875
    endloop
  endfacet
  facet normal -1 0 0
    outer loop
      vertex 255 445 850
      vertex 255 525 875
      vertex 255 525 850
    endloop
  endfacet
  facet normal -1 -0 0
    outer loop
      vertex 255 525 875
      vertex 255 445 850
      vertex 255 445 875
    endloop
  endfacet
  facet normal -0 0 1
    outer loop
      vertex 25 130 875
      vertex 255 105 875
      vertex 255 130 875
    endloop
  endfacet
  facet normal 0 0 1
    outer loop
      vertex 255 105 875
      vertex 25 130 875
      vertex 25 105 875
    endloop
  endfacet
  facet normal -0 0 1
    outer loop
      vertex 25 235 875
      vertex 255 210 875
      vertex 255 235 875
    endloop
  endfacet
  facet normal 0 0 1
    outer loop
      vertex 255 210 875
      vertex 25 235 875
      vertex 25 210 875
    endloop
  endfacet
  facet normal -0 0 1
    outer loop
      vertex 25 340 875
      vertex 255 315 875
      vertex 255 340 875
    endloop
  endfacet
  facet normal 0 0 1
    outer loop
      vertex 255 315 875
      vertex 25 340 875
      vertex 25 315 875
    endloop
  endfacet
  facet normal -0 0 1
    outer loop
      vertex 25 445 875
      vertex 255 420 875
      vertex 255 445 875
    endloop
  endfacet
  facet normal 0 0 1
    outer loop
      vertex 255 420 875
      vertex 25 445 875
      vertex 25 420 875
    endloop
  endfacet
  facet normal 0 0 1
    outer loop
      vertex 255 445 875
      vertex 280 550 875
      vertex 255 525 875
    endloop
  endfacet
  facet normal 0 0 1
    outer loop
      vertex 280 550 875
      vertex 25 525 875
      vertex 255 525 875
    endloop
  endfacet
  facet normal 0 0 1
    outer loop
      vertex 0 550 875
      vertex 25 445 875
      vertex 25 525 875
    endloop
  endfacet
  facet normal 0 0 1
    outer loop
      vertex 25 445 875
      vertex 0 550 875
      vertex 25 420 875
    endloop
  endfacet
  facet normal 0 0 1
    outer loop
      vertex 25 420 875
      vertex 0 550 875
      vertex 25 340 875
    endloop
  endfacet
  facet normal 0 0 1
    outer loop
      vertex 25 340 875
      vertex 0 550 875
      vertex 25 315 875
    endloop
  endfacet
  facet normal 0 0 1
    outer loop
      vertex 25 315 875
      vertex 0 550 875
      vertex 25 235 875
    endloop
  endfacet
  facet normal 0 0 1
    outer loop
      vertex 0 0 875
      vertex 25 235 875
      vertex 0 550 875
    endloop
  endfacet
  facet normal 0 0 1
    outer loop
      vertex 25 235 875
      vertex 0 0 875
      vertex 25 210 875
    endloop
  endfacet
  facet normal 0 0 1
    outer loop
      vertex 25 210 875
      vertex 0 0 875
      vertex 25 130 875
    endloop
  endfacet
  facet normal 0 0 1
    outer loop
      vertex 25 130 875
      vertex 0 0 875
      vertex 25 105 875
    endloop
  endfacet
  facet normal -0 0 1
    outer loop
      vertex 0 550 875
      vertex 25 525 875
      vertex 280 550 875
    endloop
  endfacet
  facet normal 0 0 1
    outer loop
      vertex 255 420 875
      vertex 280 550 875
      vertex 255 445 875
    endloop
  endfacet
  facet normal 0 0 1
    outer loop
      vertex 255 340 875
      vertex 280 550 875
      vertex 255 420 875
    endloop
  endfacet
  facet normal 0 0 1
    outer loop
      vertex 255 315 875
      vertex 280 550 875
      vertex 255 340 875
    endloop
  endfacet
  facet normal 0 0 1
    outer loop
      vertex 280 550 875
      vertex 255 315 875
      vertex 280 0 875
    endloop
  endfacet
  facet normal -0 0 1
    outer loop
      vertex 255 235 875
      vertex 280 0 875
      vertex 255 315 875
    endloop
  endfacet
  facet normal -0 0 1
    outer loop
      vertex 255 210 875
      vertex 280 0 875
      vertex 255 235 875
    endloop
  endfacet
  facet normal -0 0 1
    outer loop
      vertex 255 130 875
      vertex 280 0 875
      vertex 255 210 875
    endloop
  endfacet
  facet normal -0 0 1
    outer loop
      vertex 255 105 875
      vertex 280 0 875
      vertex 255 130 875
    endloop
  endfacet
  facet normal -0 0 1
    outer loop
      vertex 255 25 875
      vertex 280 0 875
      vertex 255 105 875
    endloop
  endfacet
  facet normal -0 0 1
    outer loop
      vertex 25 25 875
      vertex 280 0 875
      vertex 255 25 875
    endloop
  endfacet
  facet normal 0 0 1
    outer loop
      vertex 25 25 875
      vertex 0 0 875
      vertex 280 0 875
    endloop
  endfacet
  facet normal 0 0 1
    outer loop
      vertex 25 105 875
      vertex 0 0 875
      vertex 25 25 875
    endloop
  endfacet
  facet normal 0 0 -1
    outer loop
      vertex 0 25 850
      vertex 25 105 850
      vertex 25 25 850
    endloop
  endfacet
  facet normal -0 0 -1
    outer loop
      vertex 25 105 850
      vertex 0 25 850
      vertex 25 130 850
    endloop
  endfacet
  facet normal -0 0 -1
    outer loop
      vertex 25 130 850
      vertex 0 25 850
      vertex 25 210 850
    endloop
  endfacet
  facet normal -0 0 -1
    outer loop
      vertex 25 210 850
      vertex 0 25 850
      vertex 25 235 850
    endloop
  endfacet
  facet normal -0 0 -1
    outer loop
      vertex 25 235 850
      vertex 0 25 850
      vertex 25 315 850
    endloop
  endfacet
  facet normal 0 0 -1
    outer loop
      vertex 0 525 850
      vertex 25 315 850
      vertex 0 25 850
    endloop
  endfacet
  facet normal 0 0 -1
    outer loop
      vertex 25 315 850
      vertex 0 525 850
      vertex 25 340 850
    endloop
  endfacet
  facet normal 0 0 -1
    outer loop
      vertex 25 340 850
      vertex 0 525 850
      vertex 25 420 850
    endloop
  endfacet
  facet normal 0 0 -1
    outer loop
      vertex 25 420 850
      vertex 0 525 850
      vertex 25 445 850
    endloop
  endfacet
  facet normal 0 0 -1
    outer loop
      vertex 25 445 850
      vertex 0 525 850
      vertex 25 525 850
    endloop
  endfacet
  facet normal 0 0 -1
    outer loop
      vertex 25 420 850
      vertex 255 445 850
      vertex 255 420 850
    endloop
  endfacet
  facet normal -0 0 -1
    outer loop
      vertex 255 445 850
      vertex 25 420 850
      vertex 25 445 850
    endloop
  endfacet
  facet normal 0 0 -1
    outer loop
      vertex 25 315 850
      vertex 255 340 850
      vertex 255 315 850
    endloop
  endfacet
  facet normal -0 0 -1
    outer loop
      vertex 255 340 850
      vertex 25 315 850
      vertex 25 340 850
    endloop
  endfacet
  facet normal 0 0 -1
    outer loop
      vertex 25 210 850
      vertex 255 235 850
      vertex 255 210 850
    endloop
  endfacet
  facet normal -0 0 -1
    outer loop
      vertex 255 235 850
      vertex 25 210 850
      vertex 25 235 850
    endloop
  endfacet
  facet normal 0 0 -1
    outer loop
      vertex 25 105 850
      vertex 255 130 850
      vertex 255 105 850
    endloop
  endfacet
  facet normal -0 0 -1
    outer loop
      vertex 255 130 850
      vertex 25 105 850
      vertex 25 130 850
    endloop
  endfacet
  facet normal 0 0 -1
    outer loop
      vertex 255 105 850
      vertex 280 25 850
      vertex 255 25 850
    endloop
  endfacet
  facet normal 0 0 -1
    outer loop
      vertex 255 130 850
      vertex 280 25 850
      vertex 255 105 850
    endloop
  endfacet
  facet normal 0 0 -1
    outer loop
      vertex 255 210 850
      vertex 280 25 850
      vertex 255 130 850
    endloop
  endfacet
  facet normal 0 0 -1
    outer loop
      vertex 255 235 850
      vertex 280 25 850
      vertex 255 210 850
    endloop
  endfacet
  facet normal 0 0 -1
    outer loop
      vertex 280 25 850
      vertex 255 235 850
      vertex 280 525 850
    endloop
  endfacet
  facet normal 0 0 -1
    outer loop
      vertex 255 315 850
      vertex 280 525 850
      vertex 255 235 850
    endloop
  endfacet
  facet normal 0 0 -1
    outer loop
      vertex 255 340 850
      vertex 280 525 850
      vertex 255 315 850
    endloop
  endfacet
  facet normal 0 0 -1
    outer loop
      vertex 255 420 850
      vertex 280 525 850
      vertex 255 340 850
    endloop
  endfacet
  facet normal 0 0 -1
    outer loop
      vertex 255 445 850
      vertex 280 525 850
      vertex 255 420 850
    endloop
  endfacet
  facet normal -0 0 -1
    outer loop
      vertex 280 525 850
      vertex 255 445 850
      vertex 255 525 850
    endloop
  endfacet
  facet normal 0 0 -1
    outer loop
      vertex 25 525 850
      vertex 255 550 850
      vertex 255 525 850
    endloop
  endfacet
  facet normal -0 0 -1
    outer loop
      vertex 255 550 850
      vertex 25 525 850
      vertex 25 550 850
    endloop
  endfacet
  facet normal 0 0 -1
    outer loop
      vertex 25 0 850
      vertex 255 25 850
      vertex 255 0 850
    endloop
  endfacet
  facet normal -0 0 -1
    outer loop
      vertex 255 25 850
      vertex 25 0 850
      vertex 25 25 850
    endloop
  endfacet
  facet normal 1 -0 0
    outer loop
      vertex 25 130 875
      vertex 25 210 850
      vertex 25 210 875
    endloop
  endfacet
  facet normal 1 0 0
    outer loop
      vertex 25 210 850
      vertex 25 130 875
      vertex 25 130 850
    endloop
  endfacet
  facet normal 1 -0 0
    outer loop
      vertex 25 25 875
      vertex 25 105 850
      vertex 25 105 875
    endloop
  endfacet
  facet normal 1 0 0
    outer loop
      vertex 25 105 850
      vertex 25 25 875
      vertex 25 25 850
    endloop
  endfacet
  facet normal 1 -0 0
    outer loop
      vertex 25 340 875
      vertex 25 420 850
      vertex 25 420 875
    endloop
  endfacet
  facet normal 1 0 0
    outer loop
      vertex 25 420 850
      vertex 25 340 875
      vertex 25 340 850
    endloop
  endfacet
  facet normal 1 -0 0
    outer loop
      vertex 25 235 875
      vertex 25 315 850
      vertex 25 315 875
    endloop
  endfacet
  facet normal 1 0 0
    outer loop
      vertex 25 315 850
      vertex 25 235 875
      vertex 25 235 850
    endloop
  endfacet
  facet normal 1 -0 0
    outer loop
      vertex 25 445 875
      vertex 25 525 850
      vertex 25 525 875
    endloop
  endfacet
  facet normal 1 0 0
    outer loop
      vertex 25 525 850
      vertex 25 445 875
      vertex 25 445 850
    endloop
  endfacet
  facet normal 0 1 -0
    outer loop
      vertex 255 25 850
      vertex 25 25 875
      vertex 255 25 875
    endloop
  endfacet
  facet normal 0 1 0
    outer loop
      vertex 25 25 875
      vertex 255 25 850
      vertex 25 25 850
    endloop
  endfacet
  facet normal 0 1 -0
    outer loop
      vertex 255 130 850
      vertex 25 130 875
      vertex 255 130 875
    endloop
  endfacet
  facet normal 0 1 0
    outer loop
      vertex 25 130 875
      vertex 255 130 850
      vertex 25 130 850
    endloop
  endfacet
  facet normal 0 -1 0
    outer loop
      vertex 25 105 850
      vertex 255 105 875
      vertex 25 105 875
    endloop
  endfacet
  facet normal 0 -1 -0
    outer loop
      vertex 255 105 875
      vertex 25 105 850
      vertex 255 105 850
    endloop
  endfacet
  facet normal 0 1 -0
    outer loop
      vertex 255 235 850
      vertex 25 235 875
      vertex 255 235 875
    endloop
  endfacet
  facet normal 0 1 0
    outer loop
      vertex 25 235 875
      vertex 255 235 850
      vertex 25 235 850
    endloop
  endfacet
  facet normal 0 -1 0
    outer loop
      vertex 25 210 850
      vertex 255 210 875
      vertex 25 210 875
    endloop
  endfacet
  facet normal 0 -1 -0
    outer loop
      vertex 255 210 875
      vertex 25 210 850
      vertex 255 210 850
    endloop
  endfacet
  facet normal 0 1 -0
    outer loop
      vertex 255 340 850
      vertex 25 340 875
      vertex 255 340 875
    endloop
  endfacet
  facet normal 0 1 0
    outer loop
      vertex 25 340 875
      vertex 255 340 850
      vertex 25 340 850
    endloop
  endfacet
  facet normal 0 -1 0
    outer loop
      vertex 25 315 850
      vertex 255 315 875
      vertex 25 315 875
    endloop
  endfacet
  facet normal 0 -1 -0
    outer loop
      vertex 255 315 875
      vertex 25 315 850
      vertex 255 315 850
    endloop
  endfacet
  facet normal 0 1 -0
    outer loop
      vertex 255 445 850
      vertex 25 445 875
      vertex 255 445 875
    endloop
  endfacet
  facet normal 0 1 0
    outer loop
      vertex 25 445 875
      vertex 255 445 850
      vertex 25 445 850
    endloop
  endfacet
  facet normal 0 -1 0
    outer loop
      vertex 25 420 850
      vertex 255 420 875
      vertex 25 420 875
    endloop
  endfacet
  facet normal 0 -1 -0
    outer loop
      vertex 255 420 875
      vertex 25 420 850
      vertex 255 420 850
    endloop
  endfacet
  facet normal 0 -1 0
    outer loop
      vertex 25 525 850
      vertex 255 525 875
      vertex 25 525 875
    endloop
  endfacet
  facet normal 0 -1 -0
    outer loop
      vertex 255 525 875
      vertex 25 525 850
      vertex 255 525 850
    endloop
  endfacet
  facet normal 1 -0 0
    outer loop
      vertex 25 0 850
      vertex 25 25 500
      vertex 25 25 850
    endloop
  endfacet
  facet normal 1 0 0
    outer loop
      vertex 25 25 500
      vertex 25 0 850
      vertex 25 0 500
    endloop
  endfacet
  facet normal 1 -0 0
    outer loop
      vertex 25 0 475
      vertex 25 25 200
      vertex 25 25 475
    endloop
  endfacet
  facet normal 1 0 0
    outer loop
      vertex 25 25 200
      vertex 25 0 475
      vertex 25 0 200
    endloop
  endfacet
  facet normal 1 -0 0
    outer loop
      vertex 25 0 175
      vertex 25 25 0
      vertex 25 25 175
    endloop
  endfacet
  facet normal 1 0 0
    outer loop
      vertex 25 25 0
      vertex 25 0 175
      vertex 25 0 0
    endloop
  endfacet
  facet normal 0 0 -1
    outer loop
      vertex 0 0 0
      vertex 25 25 0
      vertex 25 0 0
    endloop
  endfacet
  facet normal -0 0 -1
    outer loop
      vertex 25 25 0
      vertex 0 0 0
      vertex 0 25 0
    endloop
  endfacet
  facet normal 0 1 -0
    outer loop
      vertex 25 25 500
      vertex 0 25 850
      vertex 25 25 850
    endloop
  endfacet
  facet normal 0 1 0
    outer loop
      vertex 0 25 850
      vertex 25 25 500
      vertex 0 25 500
    endloop
  endfacet
  facet normal 0 1 -0
    outer loop
      vertex 25 25 200
      vertex 0 25 475
      vertex 25 25 475
    endloop
  endfacet
  facet normal 0 1 0
    outer loop
      vertex 0 25 475
      vertex 25 25 200
      vertex 0 25 200
    endloop
  endfacet
  facet normal 0 1 -0
    outer loop
      vertex 25 25 0
      vertex 0 25 175
      vertex 25 25 175
    endloop
  endfacet
  facet normal 0 1 0
    outer loop
      vertex 0 25 175
      vertex 25 25 0
      vertex 0 25 0
    endloop
  endfacet
  facet normal 0 0 -1
    outer loop
      vertex 255 0 0
      vertex 280 25 0
      vertex 280 0 0
    endloop
  endfacet
  facet normal -0 0 -1
    outer loop
      vertex 280 25 0
      vertex 255 0 0
      vertex 255 25 0
    endloop
  endfacet
  facet normal -1 0 0
    outer loop
      vertex 255 0 500
      vertex 255 25 850
      vertex 255 25 500
    endloop
  endfacet
  facet normal -1 -0 0
    outer loop
      vertex 255 25 850
      vertex 255 0 500
      vertex 255 0 850
    endloop
  endfacet
  facet normal -1 0 0
    outer loop
      vertex 255 0 200
      vertex 255 25 475
      vertex 255 25 200
    endloop
  endfacet
  facet normal -1 -0 0
    outer loop
      vertex 255 25 475
      vertex 255 0 200
      vertex 255 0 475
    endloop
  endfacet
  facet normal -1 0 0
    outer loop
      vertex 255 0 0
      vertex 255 25 175
      vertex 255 25 0
    endloop
  endfacet
  facet normal -1 -0 0
    outer loop
      vertex 255 25 175
      vertex 255 0 0
      vertex 255 0 175
    endloop
  endfacet
  facet normal 0 1 -0
    outer loop
      vertex 280 25 500
      vertex 255 25 850
      vertex 280 25 850
    endloop
  endfacet
  facet normal 0 1 0
    outer loop
      vertex 255 25 850
      vertex 280 25 500
      vertex 255 25 500
    endloop
  endfacet
  facet normal 0 1 -0
    outer loop
      vertex 280 25 200
      vertex 255 25 475
      vertex 280 25 475
    endloop
  endfacet
  facet normal 0 1 0
    outer loop
      vertex 255 25 475
      vertex 280 25 200
      vertex 255 25 200
    endloop
  endfacet
  facet normal 0 1 -0
    outer loop
      vertex 280 25 0
      vertex 255 25 175
      vertex 280 25 175
    endloop
  endfacet
  facet normal 0 1 0
    outer loop
      vertex 255 25 175
      vertex 280 25 0
      vertex 255 25 0
    endloop
  endfacet
  facet normal 1 -0 0
    outer loop
      vertex 25 525 850
      vertex 25 550 500
      vertex 25 550 850
    endloop
  endfacet
  facet normal 1 0 0
    outer loop
      vertex 25 550 500
      vertex 25 525 850
      vertex 25 525 500
    endloop
  endfacet
  facet normal 1 -0 0
    outer loop
      vertex 25 525 475
      vertex 25 550 200
      vertex 25 550 475
    endloop
  endfacet
  facet normal 1 0 0
    outer loop
      vertex 25 550 200
      vertex 25 525 475
      vertex 25 525 200
    endloop
  endfacet
  facet normal 1 -0 0
    outer loop
      vertex 25 525 175
      vertex 25 550 0
      vertex 25 550 175
    endloop
  endfacet
  facet normal 1 0 0
    outer loop
      vertex 25 550 0
      vertex 25 525 175
      vertex 25 525 0
    endloop
  endfacet
  facet normal 0 0 -1
    outer loop
      vertex 0 525 0
      vertex 25 550 0
      vertex 25 525 0
    endloop
  endfacet
  facet normal -0 0 -1
    outer loop
      vertex 25 550 0
      vertex 0 525 0
      vertex 0 550 0
    endloop
  endfacet
  facet normal 0 -1 0
    outer loop
      vertex 0 525 500
      vertex 25 525 850
      vertex 0 525 850
    endloop
  endfacet
  facet normal 0 -1 -0
    outer loop
      vertex 25 525 850
      vertex 0 525 500
      vertex 25 525 500
    endloop
  endfacet
  facet normal 0 -1 0
    outer loop
      vertex 0 525 200
      vertex 25 525 475
      vertex 0 525 475
    endloop
  endfacet
  facet normal 0 -1 -0
    outer loop
      vertex 25 525 475
      vertex 0 525 200
      vertex 25 525 200
    endloop
  endfacet
  facet normal 0 -1 0
    outer loop
      vertex 0 525 0
      vertex 25 525 175
      vertex 0 525 175
    endloop
  endfacet
  facet normal 0 -1 -0
    outer loop
      vertex 25 525 175
      vertex 0 525 0
      vertex 25 525 0
    endloop
  endfacet
  facet normal 0 0 -1
    outer loop
      vertex 255 525 0
      vertex 280 550 0
      vertex 280 525 0
    endloop
  endfacet
  facet normal -0 0 -1
    outer loop
      vertex 280 550 0
      vertex 255 525 0
      vertex 255 550 0
    endloop
  endfacet
  facet normal -1 0 0
    outer loop
      vertex 255 525 500
      vertex 255 550 850
      vertex 255 550 500
    endloop
  endfacet
  facet normal -1 -0 0
    outer loop
      vertex 255 550 850
      vertex 255 525 500
      vertex 255 525 850
    endloop
  endfacet
  facet normal -1 0 0
    outer loop
      vertex 255 525 200
      vertex 255 550 475
      vertex 255 550 200
    endloop
  endfacet
  facet normal -1 -0 0
    outer loop
      vertex 255 550 475
      vertex 255 525 200
      vertex 255 525 475
    endloop
  endfacet
  facet normal -1 0 0
    outer loop
      vertex 255 525 0
      vertex 255 550 175
      vertex 255 550 0
    endloop
  endfacet
  facet normal -1 -0 0
    outer loop
      vertex 255 550 175
      vertex 255 525 0
      vertex 255 525 175
    endloop
  endfacet
  facet normal 0 -1 0
    outer loop
      vertex 255 525 500
      vertex 280 525 850
      vertex 255 525 850
    endloop
  endfacet
  facet normal 0 -1 -0
    outer loop
      vertex 280 525 850
      vertex 255 525 500
      vertex 280 525 500
    endloop
  endfacet
  facet normal 0 -1 0
    outer loop
      vertex 255 525 200
      vertex 280 525 475
      vertex 255 525 475
    endloop
  endfacet
  facet normal 0 -1 -0
    outer loop
      vertex 280 525 475
      vertex 255 525 200
      vertex 280 525 200
    endloop
  endfacet
  facet normal 0 -1 0
    outer loop
      vertex 255 525 0
      vertex 280 525 175
      vertex 255 525 175
    endloop
  endfacet
  facet normal 0 -1 -0
    outer loop
      vertex 280 525 175
      vertex 255 525 0
      vertex 280 525 0
    endloop
  endfacet
endsolid OpenSCAD_Model
